<svg width="549" height="52" viewBox="0 0 549 52" fill="none" xmlns="http://www.w3.org/2000/svg">
<path d="M24.9859 18.56C24.5326 17.0933 23.7326 16 22.5859 15.28C21.4659 14.5333 20.1326 14.16 18.5859 14.16C17.3859 14.16 16.3059 14.3733 15.3459 14.8C14.3859 15.2267 13.5726 15.84 12.9059 16.64C12.2393 17.4133 11.7193 18.36 11.3459 19.48C10.9993 20.6 10.8259 21.84 10.8259 23.2C10.8259 26.0267 11.5193 28.2267 12.9059 29.8C14.3193 31.3467 16.1993 32.12 18.5459 32.12C20.2259 32.12 21.7059 31.72 22.9859 30.92C24.2659 30.12 25.1593 29.0667 25.6659 27.76L31.8259 30.4C30.7859 32.9867 29.0659 34.9867 26.6659 36.4C24.2926 37.7867 21.5726 38.48 18.5059 38.48C16.3193 38.48 14.3326 38.12 12.5459 37.4C10.7593 36.68 9.22594 35.6533 7.94594 34.32C6.6926 32.9867 5.71927 31.3867 5.02594 29.52C4.3326 27.6533 3.98594 25.5867 3.98594 23.32C3.95927 21.0533 4.2926 18.9733 4.98594 17.08C5.70594 15.16 6.70594 13.52 7.98594 12.16C9.2926 10.7733 10.8393 9.70667 12.6259 8.96C14.4393 8.21333 16.4259 7.85333 18.5859 7.88C21.7326 7.88 24.4526 8.66667 26.7459 10.24C29.0393 11.7867 30.5193 13.8667 31.1859 16.48L24.9859 18.56ZM34.625 7.84H40.825V38H34.625V7.84ZM44.625 11.36C44.625 10.3733 44.9583 9.54667 45.625 8.88C46.3183 8.21333 47.1583 7.88 48.145 7.88C49.105 7.88 49.9183 8.21333 50.585 8.88C51.2783 9.54667 51.625 10.3733 51.625 11.36C51.625 12.3467 51.2783 13.1867 50.585 13.88C49.9183 14.5467 49.105 14.88 48.145 14.88C47.1583 14.88 46.3183 14.5467 45.625 13.88C44.9583 13.1867 44.625 12.3467 44.625 11.36ZM51.225 18V38H45.025V18H51.225ZM64.8509 17.36C67.2243 17.36 69.2643 17.96 70.9709 19.16C72.6776 20.3067 73.7976 21.8533 74.3309 23.8L69.0509 25.88C68.7843 25 68.2776 24.2933 67.5309 23.76C66.8109 23.2267 65.9709 22.96 65.0109 22.96C63.6243 22.96 62.5443 23.4133 61.7709 24.32C60.9976 25.2267 60.6109 26.4533 60.6109 28C60.6109 29.5467 60.9976 30.76 61.7709 31.64C62.5709 32.4933 63.6509 32.92 65.0109 32.92C65.9976 32.92 66.8643 32.6667 67.6109 32.16C68.3576 31.6533 68.8643 30.9733 69.1309 30.12L74.3309 32.04C73.7443 33.9867 72.5843 35.56 70.8509 36.76C69.1176 37.9333 67.1176 38.52 64.8509 38.52C63.3043 38.52 61.8776 38.2667 60.5709 37.76C59.2909 37.2533 58.1976 36.5333 57.2909 35.6C56.3843 34.6667 55.6776 33.56 55.1709 32.28C54.6643 30.9733 54.4109 29.5467 54.4109 28C54.4109 26.4 54.6643 24.9467 55.1709 23.64C55.6776 22.3333 56.3843 21.2133 57.2909 20.28C58.1976 19.3467 59.2909 18.6267 60.5709 18.12C61.8776 17.6133 63.3043 17.36 64.8509 17.36ZM77.125 38V7.84H83.325V24.84L89.765 18H97.485L88.685 27.32L96.805 38H89.245L84.605 31.6L83.325 33V38H77.125ZM122.49 23.12H118.73V38H112.65V23.12H108.85V18H112.65V11.8H118.73V18H122.49V23.12ZM134.934 17.4C136.534 17.4 137.974 17.6533 139.254 18.16C140.56 18.6667 141.68 19.3867 142.614 20.32C143.547 21.2533 144.267 22.3733 144.774 23.68C145.28 24.96 145.534 26.3867 145.534 27.96C145.534 29.5067 145.28 30.9333 144.774 32.24C144.267 33.52 143.547 34.6267 142.614 35.56C141.68 36.4933 140.56 37.2133 139.254 37.72C137.974 38.2267 136.534 38.48 134.934 38.48C133.334 38.48 131.88 38.2267 130.574 37.72C129.267 37.2133 128.147 36.4933 127.214 35.56C126.28 34.6267 125.56 33.52 125.054 32.24C124.547 30.9333 124.294 29.5067 124.294 27.96C124.294 26.3867 124.547 24.96 125.054 23.68C125.56 22.3733 126.28 21.2533 127.214 20.32C128.147 19.3867 129.267 18.6667 130.574 18.16C131.88 17.6533 133.334 17.4 134.934 17.4ZM134.934 32.96C136.294 32.96 137.36 32.5067 138.134 31.6C138.934 30.6667 139.334 29.44 139.334 27.92C139.334 26.4 138.934 25.1867 138.134 24.28C137.36 23.3733 136.294 22.92 134.934 22.92C133.574 22.92 132.494 23.3733 131.694 24.28C130.894 25.1867 130.494 26.4 130.494 27.92C130.494 29.44 130.894 30.6667 131.694 31.6C132.494 32.5067 133.574 32.96 134.934 32.96ZM175.313 38C175.179 37.4933 175.073 36.8133 174.993 35.96C174.379 36.76 173.513 37.3867 172.393 37.84C171.273 38.2933 170.059 38.52 168.753 38.52C165.739 38.52 163.273 37.64 161.353 35.88C159.459 34.0667 158.513 31.44 158.513 28C158.513 26.3733 158.779 24.9067 159.313 23.6C159.846 22.2933 160.579 21.1867 161.513 20.28C162.446 19.3467 163.539 18.6267 164.793 18.12C166.073 17.6133 167.459 17.36 168.953 17.36C170.073 17.36 171.179 17.5467 172.273 17.92C173.366 18.2667 174.246 18.8 174.913 19.52V7.84H181.073V32.6C181.073 33.3733 181.113 34.4 181.193 35.68C181.273 36.9867 181.366 37.76 181.473 38H175.313ZM174.793 27.92C174.793 26.3733 174.313 25.16 173.353 24.28C172.419 23.3733 171.233 22.92 169.793 22.92C168.353 22.92 167.153 23.3733 166.193 24.28C165.233 25.16 164.753 26.3733 164.753 27.92C164.753 29.4667 165.233 30.6933 166.193 31.6C167.153 32.48 168.353 32.92 169.793 32.92C171.233 32.92 172.419 32.48 173.353 31.6C174.313 30.6933 174.793 29.4667 174.793 27.92ZM185.641 11.36C185.641 10.3733 185.974 9.54667 186.641 8.88C187.334 8.21333 188.174 7.88 189.161 7.88C190.121 7.88 190.934 8.21333 191.601 8.88C192.294 9.54667 192.641 10.3733 192.641 11.36C192.641 12.3467 192.294 13.1867 191.601 13.88C190.934 14.5467 190.121 14.88 189.161 14.88C188.174 14.88 187.334 14.5467 186.641 13.88C185.974 13.1867 185.641 12.3467 185.641 11.36ZM192.241 18V38H186.041V18H192.241ZM204.022 33.68C204.715 33.68 205.262 33.5467 205.662 33.28C206.062 33.0133 206.262 32.64 206.262 32.16C206.262 31.4667 205.755 30.9867 204.742 30.72L202.222 30.04C200.035 29.4533 198.489 28.6533 197.582 27.64C196.675 26.6267 196.222 25.4 196.222 23.96C196.222 23 196.395 22.12 196.742 21.32C197.115 20.4933 197.635 19.8 198.302 19.24C198.969 18.6533 199.782 18.2 200.742 17.88C201.729 17.5333 202.835 17.36 204.062 17.36C206.169 17.36 207.929 17.84 209.342 18.8C210.782 19.7333 211.675 21.0533 212.022 22.76L206.462 24.04C206.409 23.48 206.182 23.04 205.782 22.72C205.382 22.4 204.875 22.24 204.262 22.24C203.675 22.24 203.195 22.3867 202.822 22.68C202.449 22.9467 202.262 23.3333 202.262 23.84C202.262 24.2133 202.395 24.5333 202.662 24.8C202.955 25.04 203.462 25.2533 204.182 25.44L206.622 26.08C210.515 27.0933 212.462 29.1333 212.462 32.2C212.462 34.12 211.729 35.6533 210.262 36.8C208.822 37.9467 206.769 38.52 204.102 38.52C201.542 38.52 199.555 37.9867 198.142 36.92C196.729 35.8533 195.889 34.4267 195.622 32.64L201.302 31.68C201.329 32.2933 201.582 32.7867 202.062 33.16C202.542 33.5067 203.195 33.68 204.022 33.68ZM225.32 17.36C227.693 17.36 229.733 17.96 231.44 19.16C233.146 20.3067 234.266 21.8533 234.8 23.8L229.52 25.88C229.253 25 228.746 24.2933 228 23.76C227.28 23.2267 226.44 22.96 225.48 22.96C224.093 22.96 223.013 23.4133 222.24 24.32C221.466 25.2267 221.08 26.4533 221.08 28C221.08 29.5467 221.466 30.76 222.24 31.64C223.04 32.4933 224.12 32.92 225.48 32.92C226.466 32.92 227.333 32.6667 228.08 32.16C228.826 31.6533 229.333 30.9733 229.6 30.12L234.8 32.04C234.213 33.9867 233.053 35.56 231.32 36.76C229.586 37.9333 227.586 38.52 225.32 38.52C223.773 38.52 222.346 38.2667 221.04 37.76C219.76 37.2533 218.666 36.5333 217.76 35.6C216.853 34.6667 216.146 33.56 215.64 32.28C215.133 30.9733 214.88 29.5467 214.88 28C214.88 26.4 215.133 24.9467 215.64 23.64C216.146 22.3333 216.853 21.2133 217.76 20.28C218.666 19.3467 219.76 18.6267 221.04 18.12C222.346 17.6133 223.773 17.36 225.32 17.36ZM247.824 17.4C249.424 17.4 250.864 17.6533 252.144 18.16C253.451 18.6667 254.571 19.3867 255.504 20.32C256.438 21.2533 257.158 22.3733 257.664 23.68C258.171 24.96 258.424 26.3867 258.424 27.96C258.424 29.5067 258.171 30.9333 257.664 32.24C257.158 33.52 256.438 34.6267 255.504 35.56C254.571 36.4933 253.451 37.2133 252.144 37.72C250.864 38.2267 249.424 38.48 247.824 38.48C246.224 38.48 244.771 38.2267 243.464 37.72C242.158 37.2133 241.038 36.4933 240.104 35.56C239.171 34.6267 238.451 33.52 237.944 32.24C237.438 30.9333 237.184 29.5067 237.184 27.96C237.184 26.3867 237.438 24.96 237.944 23.68C238.451 22.3733 239.171 21.2533 240.104 20.32C241.038 19.3867 242.158 18.6667 243.464 18.16C244.771 17.6533 246.224 17.4 247.824 17.4ZM247.824 32.96C249.184 32.96 250.251 32.5067 251.024 31.6C251.824 30.6667 252.224 29.44 252.224 27.92C252.224 26.4 251.824 25.1867 251.024 24.28C250.251 23.3733 249.184 22.92 247.824 22.92C246.464 22.92 245.384 23.3733 244.584 24.28C243.784 25.1867 243.384 26.4 243.384 27.92C243.384 29.44 243.784 30.6667 244.584 31.6C245.384 32.5067 246.464 32.96 247.824 32.96ZM281.32 18L272.96 38H266.88L259.04 18H265.72L270.12 30.6L274.92 18H281.32ZM302.114 30.04H287.554C287.714 31.16 288.207 31.9867 289.034 32.52C289.887 33.0267 290.874 33.28 291.994 33.28C293.994 33.28 295.407 32.48 296.234 30.88L301.354 32.88C300.66 34.64 299.474 36.0267 297.794 37.04C296.114 38.0267 294.194 38.52 292.034 38.52C290.54 38.52 289.167 38.2667 287.914 37.76C286.66 37.2533 285.58 36.5333 284.674 35.6C283.767 34.6667 283.06 33.56 282.554 32.28C282.047 30.9733 281.794 29.5333 281.794 27.96C281.794 26.36 282.047 24.92 282.554 23.64C283.06 22.3333 283.754 21.2133 284.634 20.28C285.54 19.3467 286.62 18.6267 287.874 18.12C289.154 17.6133 290.554 17.36 292.074 17.36C293.594 17.36 294.967 17.6133 296.194 18.12C297.42 18.6267 298.474 19.3467 299.354 20.28C300.234 21.2133 300.914 22.3333 301.394 23.64C301.874 24.9467 302.114 26.4 302.114 28V30.04ZM295.834 25.84C295.727 24.6933 295.327 23.84 294.634 23.28C293.967 22.72 293.074 22.44 291.954 22.44C290.834 22.44 289.9 22.7333 289.154 23.32C288.434 23.88 287.954 24.72 287.714 25.84H295.834ZM316.688 17.72C317.675 17.72 318.501 17.8133 319.168 18V23.68C318.181 23.4667 317.408 23.36 316.848 23.36C315.168 23.36 313.875 23.88 312.968 24.92C312.061 25.9333 311.608 27.4 311.608 29.32V38H305.328V18.04H311.088L311.408 20.2C311.835 19.3733 312.515 18.76 313.448 18.36C314.408 17.9333 315.488 17.72 316.688 17.72ZM364.396 25.48V38H358.396V26.44C358.396 25.2133 358.102 24.2933 357.516 23.68C356.929 23.04 356.129 22.72 355.116 22.72C354.102 22.72 353.262 23.0533 352.596 23.72C351.929 24.36 351.596 25.48 351.596 27.08V38H345.516V26.44C345.516 25.24 345.222 24.3333 344.636 23.72C344.076 23.08 343.289 22.76 342.276 22.76C341.262 22.76 340.409 23.0933 339.716 23.76C339.049 24.4267 338.716 25.5333 338.716 27.08V38H332.516V18H338.276L338.476 19.6C339.596 18.08 341.422 17.32 343.956 17.32C345.476 17.32 346.782 17.6133 347.876 18.2C348.996 18.7867 349.876 19.68 350.516 20.88C351.022 19.76 351.809 18.8933 352.876 18.28C353.969 17.64 355.289 17.32 356.836 17.32C359.156 17.32 360.996 18.04 362.356 19.48C363.716 20.8933 364.396 22.8933 364.396 25.48ZM389.654 18L379.854 42.8C378.467 46.4 376.094 48.2 372.734 48.2C371.961 48.2 371.174 48.1067 370.374 47.92C369.574 47.76 368.667 47.5333 367.654 47.24L369.334 41.64C370.347 42.2267 371.281 42.52 372.134 42.52C373.467 42.52 374.374 41.8533 374.854 40.52L375.374 39.12L366.814 18H373.334L378.294 31.2L383.174 18H389.654ZM433.833 18L426.753 38H421.033L417.473 27.16L413.753 38H407.753L401.073 18H407.793L410.873 28.96L414.353 18H420.673L423.913 29.24L427.233 18H433.833ZM445.481 17.4C447.081 17.4 448.521 17.6533 449.801 18.16C451.107 18.6667 452.227 19.3867 453.161 20.32C454.094 21.2533 454.814 22.3733 455.321 23.68C455.827 24.96 456.081 26.3867 456.081 27.96C456.081 29.5067 455.827 30.9333 455.321 32.24C454.814 33.52 454.094 34.6267 453.161 35.56C452.227 36.4933 451.107 37.2133 449.801 37.72C448.521 38.2267 447.081 38.48 445.481 38.48C443.881 38.48 442.427 38.2267 441.121 37.72C439.814 37.2133 438.694 36.4933 437.761 35.56C436.827 34.6267 436.107 33.52 435.601 32.24C435.094 30.9333 434.841 29.5067 434.841 27.96C434.841 26.3867 435.094 24.96 435.601 23.68C436.107 22.3733 436.827 21.2533 437.761 20.32C438.694 19.3867 439.814 18.6667 441.121 18.16C442.427 17.6533 443.881 17.4 445.481 17.4ZM445.481 32.96C446.841 32.96 447.907 32.5067 448.681 31.6C449.481 30.6667 449.881 29.44 449.881 27.92C449.881 26.4 449.481 25.1867 448.681 24.28C447.907 23.3733 446.841 22.92 445.481 22.92C444.121 22.92 443.041 23.3733 442.241 24.28C441.441 25.1867 441.041 26.4 441.041 27.92C441.041 29.44 441.441 30.6667 442.241 31.6C443.041 32.5067 444.121 32.96 445.481 32.96ZM470.633 17.72C471.62 17.72 472.447 17.8133 473.113 18V23.68C472.127 23.4667 471.353 23.36 470.793 23.36C469.113 23.36 467.82 23.88 466.913 24.92C466.007 25.9333 465.553 27.4 465.553 29.32V38H459.273V18.04H465.033L465.353 20.2C465.78 19.3733 466.46 18.76 467.393 18.36C468.353 17.9333 469.433 17.72 470.633 17.72ZM475.875 38V7.84H482.075V24.84L488.515 18H496.235L487.435 27.32L495.555 38H487.995L483.355 31.6L482.075 33V38H475.875Z" fill="black"/>
<path fill-rule="evenodd" clip-rule="evenodd" d="M512.11 25.6102C512.924 24.7966 514.243 24.7966 515.056 25.6102L524 34.5537L532.944 25.6102C533.757 24.7966 535.076 24.7966 535.89 25.6102C536.703 26.4238 536.703 27.7429 535.89 28.5565L525.473 38.9731C524.66 39.7867 523.34 39.7867 522.527 38.9731L512.11 28.5565C511.297 27.7429 511.297 26.4238 512.11 25.6102Z" fill="black"/>
<path fill-rule="evenodd" clip-rule="evenodd" d="M512.11 11.0269C512.924 10.2133 514.243 10.2133 515.056 11.0269L524 19.9704L532.944 11.0269C533.757 10.2133 535.076 10.2133 535.89 11.0269C536.703 11.8405 536.703 13.1595 535.89 13.9731L525.473 24.3898C524.66 25.2034 523.34 25.2034 522.527 24.3898L512.11 13.9731C511.297 13.1595 511.297 11.8405 512.11 11.0269Z" fill="black"/>
</svg>
