<?xml version="1.0" standalone="no"?>
<!DOCTYPE svg PUBLIC "-//W3C//DTD SVG 20010904//EN"
 "http://www.w3.org/TR/2001/REC-SVG-20010904/DTD/svg10.dtd">
<svg version="1.0" xmlns="http://www.w3.org/2000/svg"
 width="250.000000pt" height="250.000000pt" viewBox="0 0 250.000000 250.000000"
 preserveAspectRatio="xMidYMid meet">
<metadata>
Created by potrace 1.14, written by Peter Selinger 2001-2017
</metadata>
<g transform="translate(0.000000,250.000000) scale(0.100000,-0.100000)"
fill="#000000" stroke="none">
<path d="M16 2484 c-14 -14 -16 -121 -16 -1034 0 -913 2 -1020 16 -1034 13
-14 66 -16 425 -16 l409 0 0 50 0 50 -375 0 -375 0 0 950 0 950 1150 0 1150 0
0 -950 0 -950 -375 0 -375 0 0 -50 0 -50 409 0 c359 0 412 2 425 16 14 14 16
121 16 1034 0 913 -2 1020 -16 1034 -14 14 -140 16 -1234 16 -1094 0 -1220 -2
-1234 -16z"/>
<path d="M500 2000 l0 -50 750 0 750 0 0 50 0 50 -750 0 -750 0 0 -50z"/>
<path d="M500 1750 l0 -50 750 0 750 0 0 50 0 50 -750 0 -750 0 0 -50z"/>
<path d="M500 1500 l0 -50 750 0 750 0 0 50 0 50 -750 0 -750 0 0 -50z"/>
<path d="M1192 1290 c-22 -10 -46 -27 -53 -38 -10 -15 -20 -18 -58 -15 -77 8
-142 -51 -144 -131 -1 -25 -8 -37 -29 -49 -67 -38 -86 -130 -40 -195 18 -25
20 -35 12 -57 -21 -56 -13 -95 30 -137 l40 -40 0 -298 c0 -386 -10 -373 192
-253 l108 64 42 -24 c24 -13 78 -45 120 -71 78 -47 110 -53 130 -22 4 6 8 150
8 320 0 305 0 310 22 333 23 25 32 90 18 128 -6 15 0 29 21 55 55 66 47 139
-20 189 -27 19 -37 34 -39 59 -6 81 -55 126 -140 128 -39 1 -57 6 -64 18 -11
19 -55 43 -90 50 -14 2 -43 -4 -66 -14z m104 -124 c18 -29 51 -38 91 -27 46
13 74 -10 72 -57 -3 -48 15 -81 52 -94 41 -14 50 -55 18 -80 -56 -42 -54 -35
-34 -134 8 -34 -5 -50 -47 -58 -47 -8 -67 -25 -78 -66 -13 -50 -42 -60 -91
-31 -39 23 -54 22 -103 -4 -43 -23 -65 -15 -79 31 -13 40 -36 64 -61 64 -12 0
-32 7 -45 16 -19 13 -22 22 -16 48 18 87 17 91 -9 119 -40 43 -34 72 20 100
37 19 47 39 45 87 -2 24 4 41 16 51 19 16 23 17 63 5 33 -9 81 9 87 33 6 25
43 41 66 29 9 -5 24 -19 33 -32z m154 -806 l0 -220 -37 21 c-21 12 -63 36 -94
55 -31 19 -62 34 -69 34 -7 0 -51 -23 -99 -52 -47 -28 -89 -53 -93 -55 -5 -2
-8 84 -8 192 l0 196 30 -16 c37 -19 68 -19 115 1 33 14 41 14 68 0 17 -8 51
-13 75 -12 38 2 50 9 76 38 17 20 32 37 34 37 1 1 2 -98 2 -219z"/>
</g>
</svg>
